<mxfile host="app.diagrams.net" modified="2024-02-11T20:27:06.350Z" agent="Mozilla/5.0 (Windows NT 10.0; Win64; x64) AppleWebKit/537.36 (KHTML, like Gecko) Chrome/121.0.0.0 Safari/537.36" etag="bipEl6-gycvlfO9NieMo" version="23.1.2" type="device">
  <diagram name="Страница — 1" id="-HQ4ROMnKs8oQaBnvR5D">
    <mxGraphModel dx="2739" dy="1040" grid="1" gridSize="10" guides="1" tooltips="1" connect="1" arrows="1" fold="1" page="1" pageScale="1" pageWidth="827" pageHeight="1169" math="0" shadow="0">
      <root>
        <mxCell id="0" />
        <mxCell id="1" parent="0" />
        <mxCell id="k0f7VAfSnu0glsykobFn-27" value="SOFTWARE " style="shape=table;startSize=30;container=1;collapsible=1;childLayout=tableLayout;fixedRows=1;rowLines=0;fontStyle=1;align=center;resizeLast=1;html=1;whiteSpace=wrap;" vertex="1" parent="1">
          <mxGeometry x="-70" y="60" width="210" height="160" as="geometry" />
        </mxCell>
        <mxCell id="k0f7VAfSnu0glsykobFn-28" value="" style="shape=tableRow;horizontal=0;startSize=0;swimlaneHead=0;swimlaneBody=0;fillColor=none;collapsible=0;dropTarget=0;points=[[0,0.5],[1,0.5]];portConstraint=eastwest;top=0;left=0;right=0;bottom=0;html=1;" vertex="1" parent="k0f7VAfSnu0glsykobFn-27">
          <mxGeometry y="30" width="210" height="30" as="geometry" />
        </mxCell>
        <mxCell id="k0f7VAfSnu0glsykobFn-29" value="PK,FK1" style="shape=partialRectangle;connectable=0;fillColor=none;top=0;left=0;bottom=0;right=0;fontStyle=1;overflow=hidden;html=1;whiteSpace=wrap;" vertex="1" parent="k0f7VAfSnu0glsykobFn-28">
          <mxGeometry width="60" height="30" as="geometry">
            <mxRectangle width="60" height="30" as="alternateBounds" />
          </mxGeometry>
        </mxCell>
        <mxCell id="k0f7VAfSnu0glsykobFn-30" value="SOFTWARE_ID" style="shape=partialRectangle;connectable=0;fillColor=none;top=0;left=0;bottom=0;right=0;align=left;spacingLeft=6;fontStyle=5;overflow=hidden;html=1;whiteSpace=wrap;" vertex="1" parent="k0f7VAfSnu0glsykobFn-28">
          <mxGeometry x="60" width="150" height="30" as="geometry">
            <mxRectangle width="150" height="30" as="alternateBounds" />
          </mxGeometry>
        </mxCell>
        <mxCell id="k0f7VAfSnu0glsykobFn-31" value="" style="shape=tableRow;horizontal=0;startSize=0;swimlaneHead=0;swimlaneBody=0;fillColor=none;collapsible=0;dropTarget=0;points=[[0,0.5],[1,0.5]];portConstraint=eastwest;top=0;left=0;right=0;bottom=1;html=1;" vertex="1" parent="k0f7VAfSnu0glsykobFn-27">
          <mxGeometry y="60" width="210" height="20" as="geometry" />
        </mxCell>
        <mxCell id="k0f7VAfSnu0glsykobFn-32" value="" style="shape=partialRectangle;connectable=0;fillColor=none;top=0;left=0;bottom=0;right=0;fontStyle=1;overflow=hidden;html=1;whiteSpace=wrap;" vertex="1" parent="k0f7VAfSnu0glsykobFn-31">
          <mxGeometry width="60" height="20" as="geometry">
            <mxRectangle width="60" height="20" as="alternateBounds" />
          </mxGeometry>
        </mxCell>
        <mxCell id="k0f7VAfSnu0glsykobFn-33" value="" style="shape=partialRectangle;connectable=0;fillColor=none;top=0;left=0;bottom=0;right=0;align=left;spacingLeft=6;fontStyle=5;overflow=hidden;html=1;whiteSpace=wrap;" vertex="1" parent="k0f7VAfSnu0glsykobFn-31">
          <mxGeometry x="60" width="150" height="20" as="geometry">
            <mxRectangle width="150" height="20" as="alternateBounds" />
          </mxGeometry>
        </mxCell>
        <mxCell id="k0f7VAfSnu0glsykobFn-34" value="" style="shape=tableRow;horizontal=0;startSize=0;swimlaneHead=0;swimlaneBody=0;fillColor=none;collapsible=0;dropTarget=0;points=[[0,0.5],[1,0.5]];portConstraint=eastwest;top=0;left=0;right=0;bottom=0;html=1;" vertex="1" parent="k0f7VAfSnu0glsykobFn-27">
          <mxGeometry y="80" width="210" height="80" as="geometry" />
        </mxCell>
        <mxCell id="k0f7VAfSnu0glsykobFn-35" value="" style="shape=partialRectangle;connectable=0;fillColor=none;top=0;left=0;bottom=0;right=0;editable=1;overflow=hidden;html=1;whiteSpace=wrap;" vertex="1" parent="k0f7VAfSnu0glsykobFn-34">
          <mxGeometry width="60" height="80" as="geometry">
            <mxRectangle width="60" height="80" as="alternateBounds" />
          </mxGeometry>
        </mxCell>
        <mxCell id="k0f7VAfSnu0glsykobFn-36" value="&lt;font style=&quot;font-size: 10px;&quot;&gt;NAME &lt;br&gt;VERSION&lt;br&gt;DESCRIPTION&lt;br&gt;TYPE&lt;br&gt;&lt;/font&gt;" style="shape=partialRectangle;connectable=0;fillColor=none;top=0;left=0;bottom=0;right=0;align=left;spacingLeft=6;overflow=hidden;html=1;whiteSpace=wrap;" vertex="1" parent="k0f7VAfSnu0glsykobFn-34">
          <mxGeometry x="60" width="150" height="80" as="geometry">
            <mxRectangle width="150" height="80" as="alternateBounds" />
          </mxGeometry>
        </mxCell>
        <mxCell id="k0f7VAfSnu0glsykobFn-109" value="LICENSE " style="shape=table;startSize=30;container=1;collapsible=1;childLayout=tableLayout;fixedRows=1;rowLines=0;fontStyle=1;align=center;resizeLast=1;html=1;whiteSpace=wrap;" vertex="1" parent="1">
          <mxGeometry x="220" y="30" width="230" height="190" as="geometry" />
        </mxCell>
        <mxCell id="k0f7VAfSnu0glsykobFn-110" value="" style="shape=tableRow;horizontal=0;startSize=0;swimlaneHead=0;swimlaneBody=0;fillColor=none;collapsible=0;dropTarget=0;points=[[0,0.5],[1,0.5]];portConstraint=eastwest;top=0;left=0;right=0;bottom=0;html=1;" vertex="1" parent="k0f7VAfSnu0glsykobFn-109">
          <mxGeometry y="30" width="230" height="60" as="geometry" />
        </mxCell>
        <mxCell id="k0f7VAfSnu0glsykobFn-111" value="PK,FK1" style="shape=partialRectangle;connectable=0;fillColor=none;top=0;left=0;bottom=0;right=0;fontStyle=1;overflow=hidden;html=1;whiteSpace=wrap;" vertex="1" parent="k0f7VAfSnu0glsykobFn-110">
          <mxGeometry width="60" height="60" as="geometry">
            <mxRectangle width="60" height="60" as="alternateBounds" />
          </mxGeometry>
        </mxCell>
        <mxCell id="k0f7VAfSnu0glsykobFn-112" value="LICENSE_ID &lt;br&gt;SOFTWARE_ID&lt;br&gt;USER_ID&lt;br&gt;ORGANIZATION_ID " style="shape=partialRectangle;connectable=0;fillColor=none;top=0;left=0;bottom=0;right=0;align=left;spacingLeft=6;fontStyle=5;overflow=hidden;html=1;whiteSpace=wrap;" vertex="1" parent="k0f7VAfSnu0glsykobFn-110">
          <mxGeometry x="60" width="170" height="60" as="geometry">
            <mxRectangle width="170" height="60" as="alternateBounds" />
          </mxGeometry>
        </mxCell>
        <mxCell id="k0f7VAfSnu0glsykobFn-113" value="" style="shape=tableRow;horizontal=0;startSize=0;swimlaneHead=0;swimlaneBody=0;fillColor=none;collapsible=0;dropTarget=0;points=[[0,0.5],[1,0.5]];portConstraint=eastwest;top=0;left=0;right=0;bottom=1;html=1;" vertex="1" parent="k0f7VAfSnu0glsykobFn-109">
          <mxGeometry y="90" width="230" height="20" as="geometry" />
        </mxCell>
        <mxCell id="k0f7VAfSnu0glsykobFn-114" value="" style="shape=partialRectangle;connectable=0;fillColor=none;top=0;left=0;bottom=0;right=0;fontStyle=1;overflow=hidden;html=1;whiteSpace=wrap;" vertex="1" parent="k0f7VAfSnu0glsykobFn-113">
          <mxGeometry width="60" height="20" as="geometry">
            <mxRectangle width="60" height="20" as="alternateBounds" />
          </mxGeometry>
        </mxCell>
        <mxCell id="k0f7VAfSnu0glsykobFn-115" value="" style="shape=partialRectangle;connectable=0;fillColor=none;top=0;left=0;bottom=0;right=0;align=left;spacingLeft=6;fontStyle=5;overflow=hidden;html=1;whiteSpace=wrap;" vertex="1" parent="k0f7VAfSnu0glsykobFn-113">
          <mxGeometry x="60" width="170" height="20" as="geometry">
            <mxRectangle width="170" height="20" as="alternateBounds" />
          </mxGeometry>
        </mxCell>
        <mxCell id="k0f7VAfSnu0glsykobFn-116" value="" style="shape=tableRow;horizontal=0;startSize=0;swimlaneHead=0;swimlaneBody=0;fillColor=none;collapsible=0;dropTarget=0;points=[[0,0.5],[1,0.5]];portConstraint=eastwest;top=0;left=0;right=0;bottom=0;html=1;" vertex="1" parent="k0f7VAfSnu0glsykobFn-109">
          <mxGeometry y="110" width="230" height="80" as="geometry" />
        </mxCell>
        <mxCell id="k0f7VAfSnu0glsykobFn-117" value="" style="shape=partialRectangle;connectable=0;fillColor=none;top=0;left=0;bottom=0;right=0;editable=1;overflow=hidden;html=1;whiteSpace=wrap;" vertex="1" parent="k0f7VAfSnu0glsykobFn-116">
          <mxGeometry width="60" height="80" as="geometry">
            <mxRectangle width="60" height="80" as="alternateBounds" />
          </mxGeometry>
        </mxCell>
        <mxCell id="k0f7VAfSnu0glsykobFn-118" value="&lt;font style=&quot;font-size: 10px;&quot;&gt;USER&lt;br&gt;ISSUE_DATE&lt;br&gt;EXPIRY_DATE&lt;br&gt;STATUS&lt;br&gt;&lt;/font&gt;" style="shape=partialRectangle;connectable=0;fillColor=none;top=0;left=0;bottom=0;right=0;align=left;spacingLeft=6;overflow=hidden;html=1;whiteSpace=wrap;" vertex="1" parent="k0f7VAfSnu0glsykobFn-116">
          <mxGeometry x="60" width="170" height="80" as="geometry">
            <mxRectangle width="170" height="80" as="alternateBounds" />
          </mxGeometry>
        </mxCell>
        <mxCell id="k0f7VAfSnu0glsykobFn-119" value="USERS " style="shape=table;startSize=30;container=1;collapsible=1;childLayout=tableLayout;fixedRows=1;rowLines=0;fontStyle=1;align=center;resizeLast=1;html=1;whiteSpace=wrap;" vertex="1" parent="1">
          <mxGeometry x="520" y="60" width="230" height="160" as="geometry" />
        </mxCell>
        <mxCell id="k0f7VAfSnu0glsykobFn-120" value="" style="shape=tableRow;horizontal=0;startSize=0;swimlaneHead=0;swimlaneBody=0;fillColor=none;collapsible=0;dropTarget=0;points=[[0,0.5],[1,0.5]];portConstraint=eastwest;top=0;left=0;right=0;bottom=0;html=1;" vertex="1" parent="k0f7VAfSnu0glsykobFn-119">
          <mxGeometry y="30" width="230" height="30" as="geometry" />
        </mxCell>
        <mxCell id="k0f7VAfSnu0glsykobFn-121" value="PK,FK1" style="shape=partialRectangle;connectable=0;fillColor=none;top=0;left=0;bottom=0;right=0;fontStyle=1;overflow=hidden;html=1;whiteSpace=wrap;" vertex="1" parent="k0f7VAfSnu0glsykobFn-120">
          <mxGeometry width="60" height="30" as="geometry">
            <mxRectangle width="60" height="30" as="alternateBounds" />
          </mxGeometry>
        </mxCell>
        <mxCell id="k0f7VAfSnu0glsykobFn-122" value="USER_ID " style="shape=partialRectangle;connectable=0;fillColor=none;top=0;left=0;bottom=0;right=0;align=left;spacingLeft=6;fontStyle=5;overflow=hidden;html=1;whiteSpace=wrap;" vertex="1" parent="k0f7VAfSnu0glsykobFn-120">
          <mxGeometry x="60" width="170" height="30" as="geometry">
            <mxRectangle width="170" height="30" as="alternateBounds" />
          </mxGeometry>
        </mxCell>
        <mxCell id="k0f7VAfSnu0glsykobFn-123" value="" style="shape=tableRow;horizontal=0;startSize=0;swimlaneHead=0;swimlaneBody=0;fillColor=none;collapsible=0;dropTarget=0;points=[[0,0.5],[1,0.5]];portConstraint=eastwest;top=0;left=0;right=0;bottom=1;html=1;" vertex="1" parent="k0f7VAfSnu0glsykobFn-119">
          <mxGeometry y="60" width="230" height="20" as="geometry" />
        </mxCell>
        <mxCell id="k0f7VAfSnu0glsykobFn-124" value="" style="shape=partialRectangle;connectable=0;fillColor=none;top=0;left=0;bottom=0;right=0;fontStyle=1;overflow=hidden;html=1;whiteSpace=wrap;" vertex="1" parent="k0f7VAfSnu0glsykobFn-123">
          <mxGeometry width="60" height="20" as="geometry">
            <mxRectangle width="60" height="20" as="alternateBounds" />
          </mxGeometry>
        </mxCell>
        <mxCell id="k0f7VAfSnu0glsykobFn-125" value="" style="shape=partialRectangle;connectable=0;fillColor=none;top=0;left=0;bottom=0;right=0;align=left;spacingLeft=6;fontStyle=5;overflow=hidden;html=1;whiteSpace=wrap;" vertex="1" parent="k0f7VAfSnu0glsykobFn-123">
          <mxGeometry x="60" width="170" height="20" as="geometry">
            <mxRectangle width="170" height="20" as="alternateBounds" />
          </mxGeometry>
        </mxCell>
        <mxCell id="k0f7VAfSnu0glsykobFn-126" value="" style="shape=tableRow;horizontal=0;startSize=0;swimlaneHead=0;swimlaneBody=0;fillColor=none;collapsible=0;dropTarget=0;points=[[0,0.5],[1,0.5]];portConstraint=eastwest;top=0;left=0;right=0;bottom=0;html=1;" vertex="1" parent="k0f7VAfSnu0glsykobFn-119">
          <mxGeometry y="80" width="230" height="80" as="geometry" />
        </mxCell>
        <mxCell id="k0f7VAfSnu0glsykobFn-127" value="" style="shape=partialRectangle;connectable=0;fillColor=none;top=0;left=0;bottom=0;right=0;editable=1;overflow=hidden;html=1;whiteSpace=wrap;" vertex="1" parent="k0f7VAfSnu0glsykobFn-126">
          <mxGeometry width="60" height="80" as="geometry">
            <mxRectangle width="60" height="80" as="alternateBounds" />
          </mxGeometry>
        </mxCell>
        <mxCell id="k0f7VAfSnu0glsykobFn-128" value="&lt;font style=&quot;font-size: 10px;&quot;&gt;FIRST_NAME&lt;br&gt;LAST_NAME&lt;br&gt;EMAIL&lt;br&gt;ROLE&lt;br&gt;&lt;/font&gt;" style="shape=partialRectangle;connectable=0;fillColor=none;top=0;left=0;bottom=0;right=0;align=left;spacingLeft=6;overflow=hidden;html=1;whiteSpace=wrap;" vertex="1" parent="k0f7VAfSnu0glsykobFn-126">
          <mxGeometry x="60" width="170" height="80" as="geometry">
            <mxRectangle width="170" height="80" as="alternateBounds" />
          </mxGeometry>
        </mxCell>
        <mxCell id="k0f7VAfSnu0glsykobFn-129" value="ORGANIZATION " style="shape=table;startSize=30;container=1;collapsible=1;childLayout=tableLayout;fixedRows=1;rowLines=0;fontStyle=1;align=center;resizeLast=1;html=1;whiteSpace=wrap;" vertex="1" parent="1">
          <mxGeometry x="214" y="300" width="260" height="160" as="geometry" />
        </mxCell>
        <mxCell id="k0f7VAfSnu0glsykobFn-130" value="" style="shape=tableRow;horizontal=0;startSize=0;swimlaneHead=0;swimlaneBody=0;fillColor=none;collapsible=0;dropTarget=0;points=[[0,0.5],[1,0.5]];portConstraint=eastwest;top=0;left=0;right=0;bottom=0;html=1;" vertex="1" parent="k0f7VAfSnu0glsykobFn-129">
          <mxGeometry y="30" width="260" height="30" as="geometry" />
        </mxCell>
        <mxCell id="k0f7VAfSnu0glsykobFn-131" value="PK,FK1" style="shape=partialRectangle;connectable=0;fillColor=none;top=0;left=0;bottom=0;right=0;fontStyle=1;overflow=hidden;html=1;whiteSpace=wrap;" vertex="1" parent="k0f7VAfSnu0glsykobFn-130">
          <mxGeometry width="60" height="30" as="geometry">
            <mxRectangle width="60" height="30" as="alternateBounds" />
          </mxGeometry>
        </mxCell>
        <mxCell id="k0f7VAfSnu0glsykobFn-132" value="ORGANIZATION_ID " style="shape=partialRectangle;connectable=0;fillColor=none;top=0;left=0;bottom=0;right=0;align=left;spacingLeft=6;fontStyle=5;overflow=hidden;html=1;whiteSpace=wrap;" vertex="1" parent="k0f7VAfSnu0glsykobFn-130">
          <mxGeometry x="60" width="200" height="30" as="geometry">
            <mxRectangle width="200" height="30" as="alternateBounds" />
          </mxGeometry>
        </mxCell>
        <mxCell id="k0f7VAfSnu0glsykobFn-133" value="" style="shape=tableRow;horizontal=0;startSize=0;swimlaneHead=0;swimlaneBody=0;fillColor=none;collapsible=0;dropTarget=0;points=[[0,0.5],[1,0.5]];portConstraint=eastwest;top=0;left=0;right=0;bottom=1;html=1;" vertex="1" parent="k0f7VAfSnu0glsykobFn-129">
          <mxGeometry y="60" width="260" height="20" as="geometry" />
        </mxCell>
        <mxCell id="k0f7VAfSnu0glsykobFn-134" value="" style="shape=partialRectangle;connectable=0;fillColor=none;top=0;left=0;bottom=0;right=0;fontStyle=1;overflow=hidden;html=1;whiteSpace=wrap;" vertex="1" parent="k0f7VAfSnu0glsykobFn-133">
          <mxGeometry width="60" height="20" as="geometry">
            <mxRectangle width="60" height="20" as="alternateBounds" />
          </mxGeometry>
        </mxCell>
        <mxCell id="k0f7VAfSnu0glsykobFn-135" value="" style="shape=partialRectangle;connectable=0;fillColor=none;top=0;left=0;bottom=0;right=0;align=left;spacingLeft=6;fontStyle=5;overflow=hidden;html=1;whiteSpace=wrap;" vertex="1" parent="k0f7VAfSnu0glsykobFn-133">
          <mxGeometry x="60" width="200" height="20" as="geometry">
            <mxRectangle width="200" height="20" as="alternateBounds" />
          </mxGeometry>
        </mxCell>
        <mxCell id="k0f7VAfSnu0glsykobFn-136" value="" style="shape=tableRow;horizontal=0;startSize=0;swimlaneHead=0;swimlaneBody=0;fillColor=none;collapsible=0;dropTarget=0;points=[[0,0.5],[1,0.5]];portConstraint=eastwest;top=0;left=0;right=0;bottom=0;html=1;" vertex="1" parent="k0f7VAfSnu0glsykobFn-129">
          <mxGeometry y="80" width="260" height="80" as="geometry" />
        </mxCell>
        <mxCell id="k0f7VAfSnu0glsykobFn-137" value="" style="shape=partialRectangle;connectable=0;fillColor=none;top=0;left=0;bottom=0;right=0;editable=1;overflow=hidden;html=1;whiteSpace=wrap;" vertex="1" parent="k0f7VAfSnu0glsykobFn-136">
          <mxGeometry width="60" height="80" as="geometry">
            <mxRectangle width="60" height="80" as="alternateBounds" />
          </mxGeometry>
        </mxCell>
        <mxCell id="k0f7VAfSnu0glsykobFn-138" value="&lt;font style=&quot;font-size: 10px;&quot;&gt;NAME&lt;br&gt;CONTACT_PERSON&lt;br&gt;ADRESS&lt;br&gt;PHONE&lt;br&gt;EMAIL&lt;br&gt;&lt;/font&gt;" style="shape=partialRectangle;connectable=0;fillColor=none;top=0;left=0;bottom=0;right=0;align=left;spacingLeft=6;overflow=hidden;html=1;whiteSpace=wrap;" vertex="1" parent="k0f7VAfSnu0glsykobFn-136">
          <mxGeometry x="60" width="200" height="80" as="geometry">
            <mxRectangle width="200" height="80" as="alternateBounds" />
          </mxGeometry>
        </mxCell>
        <mxCell id="k0f7VAfSnu0glsykobFn-139" value="LICENSETYPE " style="shape=table;startSize=30;container=1;collapsible=1;childLayout=tableLayout;fixedRows=1;rowLines=0;fontStyle=1;align=center;resizeLast=1;html=1;whiteSpace=wrap;" vertex="1" parent="1">
          <mxGeometry x="-100" y="545" width="260" height="160" as="geometry" />
        </mxCell>
        <mxCell id="k0f7VAfSnu0glsykobFn-140" value="" style="shape=tableRow;horizontal=0;startSize=0;swimlaneHead=0;swimlaneBody=0;fillColor=none;collapsible=0;dropTarget=0;points=[[0,0.5],[1,0.5]];portConstraint=eastwest;top=0;left=0;right=0;bottom=0;html=1;" vertex="1" parent="k0f7VAfSnu0glsykobFn-139">
          <mxGeometry y="30" width="260" height="30" as="geometry" />
        </mxCell>
        <mxCell id="k0f7VAfSnu0glsykobFn-141" value="PK,FK1" style="shape=partialRectangle;connectable=0;fillColor=none;top=0;left=0;bottom=0;right=0;fontStyle=1;overflow=hidden;html=1;whiteSpace=wrap;" vertex="1" parent="k0f7VAfSnu0glsykobFn-140">
          <mxGeometry width="60" height="30" as="geometry">
            <mxRectangle width="60" height="30" as="alternateBounds" />
          </mxGeometry>
        </mxCell>
        <mxCell id="k0f7VAfSnu0glsykobFn-142" value="ORGANIZATION_ID " style="shape=partialRectangle;connectable=0;fillColor=none;top=0;left=0;bottom=0;right=0;align=left;spacingLeft=6;fontStyle=5;overflow=hidden;html=1;whiteSpace=wrap;" vertex="1" parent="k0f7VAfSnu0glsykobFn-140">
          <mxGeometry x="60" width="200" height="30" as="geometry">
            <mxRectangle width="200" height="30" as="alternateBounds" />
          </mxGeometry>
        </mxCell>
        <mxCell id="k0f7VAfSnu0glsykobFn-143" value="" style="shape=tableRow;horizontal=0;startSize=0;swimlaneHead=0;swimlaneBody=0;fillColor=none;collapsible=0;dropTarget=0;points=[[0,0.5],[1,0.5]];portConstraint=eastwest;top=0;left=0;right=0;bottom=1;html=1;" vertex="1" parent="k0f7VAfSnu0glsykobFn-139">
          <mxGeometry y="60" width="260" height="20" as="geometry" />
        </mxCell>
        <mxCell id="k0f7VAfSnu0glsykobFn-144" value="" style="shape=partialRectangle;connectable=0;fillColor=none;top=0;left=0;bottom=0;right=0;fontStyle=1;overflow=hidden;html=1;whiteSpace=wrap;" vertex="1" parent="k0f7VAfSnu0glsykobFn-143">
          <mxGeometry width="60" height="20" as="geometry">
            <mxRectangle width="60" height="20" as="alternateBounds" />
          </mxGeometry>
        </mxCell>
        <mxCell id="k0f7VAfSnu0glsykobFn-145" value="" style="shape=partialRectangle;connectable=0;fillColor=none;top=0;left=0;bottom=0;right=0;align=left;spacingLeft=6;fontStyle=5;overflow=hidden;html=1;whiteSpace=wrap;" vertex="1" parent="k0f7VAfSnu0glsykobFn-143">
          <mxGeometry x="60" width="200" height="20" as="geometry">
            <mxRectangle width="200" height="20" as="alternateBounds" />
          </mxGeometry>
        </mxCell>
        <mxCell id="k0f7VAfSnu0glsykobFn-146" value="" style="shape=tableRow;horizontal=0;startSize=0;swimlaneHead=0;swimlaneBody=0;fillColor=none;collapsible=0;dropTarget=0;points=[[0,0.5],[1,0.5]];portConstraint=eastwest;top=0;left=0;right=0;bottom=0;html=1;" vertex="1" parent="k0f7VAfSnu0glsykobFn-139">
          <mxGeometry y="80" width="260" height="80" as="geometry" />
        </mxCell>
        <mxCell id="k0f7VAfSnu0glsykobFn-147" value="" style="shape=partialRectangle;connectable=0;fillColor=none;top=0;left=0;bottom=0;right=0;editable=1;overflow=hidden;html=1;whiteSpace=wrap;" vertex="1" parent="k0f7VAfSnu0glsykobFn-146">
          <mxGeometry width="60" height="80" as="geometry">
            <mxRectangle width="60" height="80" as="alternateBounds" />
          </mxGeometry>
        </mxCell>
        <mxCell id="k0f7VAfSnu0glsykobFn-148" value="&lt;font style=&quot;font-size: 10px;&quot;&gt;NAME&lt;br&gt;DESCRIPTION&lt;br&gt;&lt;/font&gt;" style="shape=partialRectangle;connectable=0;fillColor=none;top=0;left=0;bottom=0;right=0;align=left;spacingLeft=6;overflow=hidden;html=1;whiteSpace=wrap;" vertex="1" parent="k0f7VAfSnu0glsykobFn-146">
          <mxGeometry x="60" width="200" height="80" as="geometry">
            <mxRectangle width="200" height="80" as="alternateBounds" />
          </mxGeometry>
        </mxCell>
        <mxCell id="k0f7VAfSnu0glsykobFn-149" value="LICENSEASSIGNMENT " style="shape=table;startSize=30;container=1;collapsible=1;childLayout=tableLayout;fixedRows=1;rowLines=0;fontStyle=1;align=center;resizeLast=1;html=1;whiteSpace=wrap;" vertex="1" parent="1">
          <mxGeometry x="480" y="530" width="250" height="200" as="geometry" />
        </mxCell>
        <mxCell id="k0f7VAfSnu0glsykobFn-150" value="" style="shape=tableRow;horizontal=0;startSize=0;swimlaneHead=0;swimlaneBody=0;fillColor=none;collapsible=0;dropTarget=0;points=[[0,0.5],[1,0.5]];portConstraint=eastwest;top=0;left=0;right=0;bottom=0;html=1;" vertex="1" parent="k0f7VAfSnu0glsykobFn-149">
          <mxGeometry y="30" width="250" height="70" as="geometry" />
        </mxCell>
        <mxCell id="k0f7VAfSnu0glsykobFn-151" value="PK,FK1" style="shape=partialRectangle;connectable=0;fillColor=none;top=0;left=0;bottom=0;right=0;fontStyle=1;overflow=hidden;html=1;whiteSpace=wrap;" vertex="1" parent="k0f7VAfSnu0glsykobFn-150">
          <mxGeometry width="60" height="70" as="geometry">
            <mxRectangle width="60" height="70" as="alternateBounds" />
          </mxGeometry>
        </mxCell>
        <mxCell id="k0f7VAfSnu0glsykobFn-152" value="LICENSE_ASSIGNMENT_ID &lt;br&gt;LICENSE_ID&lt;br&gt;USER_ID&lt;br&gt;ORGANIZATION_ID" style="shape=partialRectangle;connectable=0;fillColor=none;top=0;left=0;bottom=0;right=0;align=left;spacingLeft=6;fontStyle=5;overflow=hidden;html=1;whiteSpace=wrap;" vertex="1" parent="k0f7VAfSnu0glsykobFn-150">
          <mxGeometry x="60" width="190" height="70" as="geometry">
            <mxRectangle width="190" height="70" as="alternateBounds" />
          </mxGeometry>
        </mxCell>
        <mxCell id="k0f7VAfSnu0glsykobFn-153" value="" style="shape=tableRow;horizontal=0;startSize=0;swimlaneHead=0;swimlaneBody=0;fillColor=none;collapsible=0;dropTarget=0;points=[[0,0.5],[1,0.5]];portConstraint=eastwest;top=0;left=0;right=0;bottom=1;html=1;" vertex="1" parent="k0f7VAfSnu0glsykobFn-149">
          <mxGeometry y="100" width="250" height="20" as="geometry" />
        </mxCell>
        <mxCell id="k0f7VAfSnu0glsykobFn-154" value="" style="shape=partialRectangle;connectable=0;fillColor=none;top=0;left=0;bottom=0;right=0;fontStyle=1;overflow=hidden;html=1;whiteSpace=wrap;" vertex="1" parent="k0f7VAfSnu0glsykobFn-153">
          <mxGeometry width="60" height="20" as="geometry">
            <mxRectangle width="60" height="20" as="alternateBounds" />
          </mxGeometry>
        </mxCell>
        <mxCell id="k0f7VAfSnu0glsykobFn-155" value="" style="shape=partialRectangle;connectable=0;fillColor=none;top=0;left=0;bottom=0;right=0;align=left;spacingLeft=6;fontStyle=5;overflow=hidden;html=1;whiteSpace=wrap;" vertex="1" parent="k0f7VAfSnu0glsykobFn-153">
          <mxGeometry x="60" width="190" height="20" as="geometry">
            <mxRectangle width="190" height="20" as="alternateBounds" />
          </mxGeometry>
        </mxCell>
        <mxCell id="k0f7VAfSnu0glsykobFn-156" value="" style="shape=tableRow;horizontal=0;startSize=0;swimlaneHead=0;swimlaneBody=0;fillColor=none;collapsible=0;dropTarget=0;points=[[0,0.5],[1,0.5]];portConstraint=eastwest;top=0;left=0;right=0;bottom=0;html=1;" vertex="1" parent="k0f7VAfSnu0glsykobFn-149">
          <mxGeometry y="120" width="250" height="80" as="geometry" />
        </mxCell>
        <mxCell id="k0f7VAfSnu0glsykobFn-157" value="" style="shape=partialRectangle;connectable=0;fillColor=none;top=0;left=0;bottom=0;right=0;editable=1;overflow=hidden;html=1;whiteSpace=wrap;" vertex="1" parent="k0f7VAfSnu0glsykobFn-156">
          <mxGeometry width="60" height="80" as="geometry">
            <mxRectangle width="60" height="80" as="alternateBounds" />
          </mxGeometry>
        </mxCell>
        <mxCell id="k0f7VAfSnu0glsykobFn-158" value="&lt;font style=&quot;font-size: 10px;&quot;&gt;FIRST_NAME&lt;br&gt;LAST_NAME&lt;br&gt;EMAIL&lt;br&gt;ROLE&lt;br&gt;&lt;/font&gt;" style="shape=partialRectangle;connectable=0;fillColor=none;top=0;left=0;bottom=0;right=0;align=left;spacingLeft=6;overflow=hidden;html=1;whiteSpace=wrap;" vertex="1" parent="k0f7VAfSnu0glsykobFn-156">
          <mxGeometry x="60" width="190" height="80" as="geometry">
            <mxRectangle width="190" height="80" as="alternateBounds" />
          </mxGeometry>
        </mxCell>
        <mxCell id="k0f7VAfSnu0glsykobFn-159" style="edgeStyle=orthogonalEdgeStyle;rounded=0;orthogonalLoop=1;jettySize=auto;html=1;entryX=0;entryY=0.5;entryDx=0;entryDy=0;curved=0;strokeColor=default;endArrow=none;endFill=0;startArrow=ERoneToMany;startFill=0;" edge="1" parent="1" source="k0f7VAfSnu0glsykobFn-31" target="k0f7VAfSnu0glsykobFn-113">
          <mxGeometry relative="1" as="geometry" />
        </mxCell>
        <mxCell id="k0f7VAfSnu0glsykobFn-160" style="edgeStyle=orthogonalEdgeStyle;rounded=0;orthogonalLoop=1;jettySize=auto;html=1;entryX=0;entryY=0.5;entryDx=0;entryDy=0;endArrow=ERoneToMany;endFill=0;" edge="1" parent="1" source="k0f7VAfSnu0glsykobFn-113" target="k0f7VAfSnu0glsykobFn-123">
          <mxGeometry relative="1" as="geometry" />
        </mxCell>
        <mxCell id="k0f7VAfSnu0glsykobFn-161" style="edgeStyle=orthogonalEdgeStyle;rounded=0;orthogonalLoop=1;jettySize=auto;html=1;entryX=0.467;entryY=-0.01;entryDx=0;entryDy=0;entryPerimeter=0;endArrow=ERoneToMany;endFill=0;" edge="1" parent="1" source="k0f7VAfSnu0glsykobFn-109" target="k0f7VAfSnu0glsykobFn-129">
          <mxGeometry relative="1" as="geometry" />
        </mxCell>
      </root>
    </mxGraphModel>
  </diagram>
</mxfile>
